<?xml version="1.0" encoding="UTF-8" standalone="no"?>
<!-- Generator: Adobe Illustrator 19.0.0, SVG Export Plug-In . SVG Version: 6.00 Build 0)  -->

<svg
   xmlns:dc="http://purl.org/dc/elements/1.1/"
   xmlns:cc="http://creativecommons.org/ns#"
   xmlns:rdf="http://www.w3.org/1999/02/22-rdf-syntax-ns#"
   xmlns:svg="http://www.w3.org/2000/svg"
   xmlns="http://www.w3.org/2000/svg"
   xmlns:sodipodi="http://sodipodi.sourceforge.net/DTD/sodipodi-0.dtd"
   xmlns:inkscape="http://www.inkscape.org/namespaces/inkscape"
   version="1.1"
   id="Layer_1"
   x="0px"
   y="0px"
   viewBox="0 0 158.79722 138.25711"
   xml:space="preserve"
   sodipodi:docname="daffodil5.svg"
   width="158.79721"
   height="138.25711"
   inkscape:version="0.92.4 (5da689c313, 2019-01-14)"><metadata
   id="metadata49"><rdf:RDF><cc:Work
       rdf:about=""><dc:format>image/svg+xml</dc:format><dc:type
         rdf:resource="http://purl.org/dc/dcmitype/StillImage" /><dc:title></dc:title></cc:Work></rdf:RDF></metadata><defs
   id="defs47" /><sodipodi:namedview
   pagecolor="#ffffff"
   bordercolor="#666666"
   borderopacity="1"
   objecttolerance="10"
   gridtolerance="10"
   guidetolerance="10"
   inkscape:pageopacity="0"
   inkscape:pageshadow="2"
   inkscape:window-width="1920"
   inkscape:window-height="1001"
   id="namedview45"
   showgrid="false"
   fit-margin-top="0"
   fit-margin-left="0"
   fit-margin-right="0"
   fit-margin-bottom="0"
   inkscape:zoom="1.8437536"
   inkscape:cx="93.604786"
   inkscape:cy="135.9636"
   inkscape:window-x="-9"
   inkscape:window-y="-9"
   inkscape:window-maximized="1"
   inkscape:current-layer="Layer_1" />
<path
   style="fill:#ffe650;stroke-width:2.18563366"
   d="m 158.29505,67.547404 c -0.49655,-0.70031 -11.36985,-15.79664 -31.73288,-22.55794 -1.91301,-0.63519 -3.05592,-2.61519 -2.64838,-4.58933 4.34275,-21.04006 -3.33847,-38.0298701 -3.69917,-38.8114501 -0.48664,-1.05081003 -1.59761,-1.67639003 -2.73245,-1.57744003 -0.85632,0.0785 -19.391306,1.91829003 -35.434841,16.17876013 -1.506098,1.33861 -3.790985,1.33861 -5.296776,0 C 60.707028,1.9295339 42.171729,0.08970387 41.315712,0.01124387 c -1.147253,-0.10447 -2.247048,0.52663 -2.73244,1.57744003 -0.361016,0.78125 -8.042235,17.7713901 -3.699177,38.8111501 0.407536,1.97444 -0.735063,3.95412 -2.648388,4.58933 -20.363638,6.7616 -31.23725083,21.85762 -31.73349367,22.55824 -0.66961777,0.94815 -0.66961777,2.21543 0,3.16295 0.49655302,0.70031 11.36985567,15.79664 31.73287367,22.55794 1.913014,0.63521 3.055926,2.61489 2.648384,4.58933 -4.342743,21.039756 3.338476,38.029896 3.699183,38.811136 0.485386,1.05081 1.589837,1.66306 2.732436,1.57744 0.856331,-0.0785 19.391315,-1.91828 35.434845,-16.17876 1.506092,-1.33861 3.790985,-1.33861 5.296771,0 16.043535,14.26048 34.578824,16.1003 35.434854,16.17876 0.0828,0.007 0.16562,0.0109 0.24874,0.0109 1.05885,0 2.03336,-0.61379 2.484,-1.58828 0.36102,-0.78127 8.04224,-17.77141 3.69918,-38.811166 -0.40754,-1.97443 0.73506,-3.95411 2.64839,-4.5893 20.36271,-6.76133 31.23632,-21.85735 31.73287,-22.55797 0.66993,-0.94782 0.66993,-2.21512 2.2e-4,-3.16261 z"
   id="path2"
   inkscape:connector-curvature="0" />
<path
   style="fill:#ffd250;stroke-width:2.18563366"
   d="m 126.56249,93.267994 c 0.04,-0.0131 0.0769,-0.0295 0.11663,-0.0429 L 84.860714,69.117654 126.44029,44.921794 c -1.83082,-0.68203 -2.92411,-2.59474 -2.52618,-4.52171 0.0267,-0.12895 0.0406,-0.2534 0.0664,-0.38181 l -41.844142,24.35004 v -48.25278 c -0.02945,0.0265 -0.05989,0.0483 -0.08933,0.0748 -1.506098,1.33861 -3.790985,1.33861 -5.297083,0 -0.02945,-0.0264 -0.05989,-0.0485 -0.08932,-0.0748 v 48.27512 L 34.86517,40.296534 c 0.0072,0.0354 0.01093,0.0688 0.01793,0.1036 0.407536,1.97444 -0.735061,3.95414 -2.648388,4.58933 -0.04002,0.0131 -0.07691,0.0295 -0.11693,0.0429 l 41.818144,24.1074 -41.579259,24.19587 c 1.830827,0.68203 2.924111,2.59443 2.526186,4.5217 -0.02667,0.12896 -0.04062,0.25371 -0.06638,0.38242 L 76.66061,73.889704 V 122.1422 c 0.02945,-0.0264 0.05988,-0.0483 0.08932,-0.0748 1.506092,-1.33893 3.790985,-1.33893 5.297082,0 0.02945,0.0265 0.05989,0.0483 0.08933,0.0748 V 73.867054 l 41.795428,24.09445 c -0.007,-0.0354 -0.0109,-0.0691 -0.0179,-0.10447 -0.40755,-1.97381 0.73505,-3.95381 2.64869,-4.589 z"
   id="path4"
   inkscape:connector-curvature="0" />
<path
   style="fill:#fff073;stroke-width:2.18563366"
   d="M 128.68082,66.390854 H 84.141161 L 106.4113,27.818204 c 0.75522,-1.31007 0.30737,-2.98395 -1.00272,-3.74073 -1.31566,-0.75957 -2.98521,-0.30736 -3.74074,1.00273 L 79.398632,63.652214 57.12911,25.080204 c -0.75956,-1.31009 -2.432826,-1.76199 -3.740742,-1.00273 -1.310078,0.75678 -1.757937,2.43066 -1.002718,3.74073 l 22.270136,38.57265 H 30.116127 c -1.51199,0 -2.738018,1.22604 -2.738018,2.73804 0,1.51197 1.226028,2.738 2.738018,2.738 H 74.655786 L 52.38565,110.43955 c -0.755219,1.31009 -0.30736,2.98398 1.002718,3.74073 0.432046,0.24875 0.902542,0.36629 1.366224,0.36629 0.946577,0 1.86618,-0.49065 2.374207,-1.36901 L 79.398321,74.605544 101.66753,113.17725 c 0.50803,0.87806 1.42794,1.36901 2.37452,1.36901 0.46368,0 0.93573,-0.1178 1.36622,-0.36629 1.31008,-0.75677 1.75794,-2.43066 1.00272,-3.74073 L 84.141161,71.866594 h 44.539659 c 1.512,0 2.73802,-1.22603 2.73802,-2.73803 0,-1.51167 -1.22602,-2.73771 -2.73802,-2.73771 z"
   id="path6"
   inkscape:connector-curvature="0" />
<path
   style="fill:#ff783c;stroke-width:2.18563366"
   d="m 109.51561,69.128894 c 0,2.45142 -5.70523,4.12099 -6.30942,6.38168 -0.62526,2.33948 3.46223,6.63353 2.27683,8.68177 -1.20184,2.07737 -6.974694,0.67488 -8.660994,2.36087 -1.685978,1.68599 -0.283785,7.45883 -2.361185,8.66066 -2.047929,1.1848 -6.341668,-2.90269 -8.680524,-2.27742 -2.261318,0.60447 -3.930246,6.30942 -6.381685,6.30942 -2.451439,0 -4.120984,-5.70525 -6.38168,-6.30942 -2.339484,-0.62527 -6.633529,3.46222 -8.681775,2.27682 -2.077394,-1.20184 -0.67489,-6.97471 -2.360873,-8.661 -1.685983,-1.68599 -7.45884,-0.28378 -8.660677,-2.36118 -1.184784,-2.04793 2.902711,-6.34168 2.277445,-8.68052 -0.604489,-2.26069 -6.309421,-3.92995 -6.309421,-6.38138 0,-2.45145 5.705243,-4.12099 6.309421,-6.38168 0.625266,-2.33948 -3.462229,-6.63353 -2.276832,-8.68177 1.201841,-2.0774 6.974698,-0.6749 8.660993,-2.36088 1.685988,-1.68599 0.28379,-7.45884 2.361185,-8.66068 2.047939,-1.18479 6.341673,2.90272 8.680534,2.27745 2.261313,-0.6048 3.930241,-6.30972 6.38168,-6.30972 2.451439,0 4.12099,5.70522 6.381685,6.3094 2.339474,0.62528 6.633524,-3.46222 8.681765,-2.27682 2.077394,1.20184 0.67489,6.9747 2.360873,8.66099 1.685988,1.686 7.458845,0.2838 8.660685,2.36118 1.18478,2.04794 -2.90271,6.34168 -2.27745,8.68053 0.60419,2.26101 6.30942,3.93025 6.30942,6.3817 z"
   id="path8"
   inkscape:connector-curvature="0" />
<path
   style="fill:#ff963c;stroke-width:2.18563366"
   d="m 80.890773,54.759244 5.329023,-2.83542 c 2.073678,-1.1035 4.586218,0.34738 4.667477,2.69493 l 0.209034,6.03307 c 0.03663,1.05605 0.595801,2.02496 1.492146,2.5848 l 5.119979,3.19767 c 1.992107,1.24401 1.992107,4.14548 0,5.38951 l -5.119979,3.19765 c -0.896345,0.55982 -1.455855,1.52874 -1.492146,2.58481 l -0.209034,6.03307 c -0.08157,2.34754 -2.593799,3.79813 -4.667477,2.69491 l -5.329023,-2.8354 c -0.932937,-0.49625 -2.051656,-0.49625 -2.984588,0 l -5.329034,2.8354 c -2.073673,1.10353 -4.586212,-0.34737 -4.667472,-2.69491 l -0.209034,-6.03307 c -0.03658,-1.05607 -0.5958,-2.02499 -1.492135,-2.58481 l -5.119989,-3.19765 c -1.992102,-1.24403 -1.992102,-4.1455 0,-5.38951 l 5.119989,-3.19767 c 0.896335,-0.55984 1.455844,-1.52875 1.492135,-2.5848 l 0.209034,-6.03307 c 0.08157,-2.34755 2.593799,-3.79813 4.667472,-2.69493 l 5.329034,2.83542 c 0.933238,0.49656 2.051651,0.49656 2.984588,0 z"
   id="path10"
   inkscape:connector-curvature="0" />
<circle
   style="fill:#ffe650;stroke-width:2.18563366"
   cx="79.398941"
   cy="69.128868"
   id="circle12"
   r="5.4757299" />
<g
   id="g14"
   transform="translate(-1.5000041e-8,-373.74205)">
</g>
<g
   id="g16"
   transform="translate(-1.5000041e-8,-373.74205)">
</g>
<g
   id="g18"
   transform="translate(-1.5000041e-8,-373.74205)">
</g>
<g
   id="g20"
   transform="translate(-1.5000041e-8,-373.74205)">
</g>
<g
   id="g22"
   transform="translate(-1.5000041e-8,-373.74205)">
</g>
<g
   id="g24"
   transform="translate(-1.5000041e-8,-373.74205)">
</g>
<g
   id="g26"
   transform="translate(-1.5000041e-8,-373.74205)">
</g>
<g
   id="g28"
   transform="translate(-1.5000041e-8,-373.74205)">
</g>
<g
   id="g30"
   transform="translate(-1.5000041e-8,-373.74205)">
</g>
<g
   id="g32"
   transform="translate(-1.5000041e-8,-373.74205)">
</g>
<g
   id="g34"
   transform="translate(-1.5000041e-8,-373.74205)">
</g>
<g
   id="g36"
   transform="translate(-1.5000041e-8,-373.74205)">
</g>
<g
   id="g38"
   transform="translate(-1.5000041e-8,-373.74205)">
</g>
<g
   id="g40"
   transform="translate(-1.5000041e-8,-373.74205)">
</g>
<g
   id="g42"
   transform="translate(-1.5000041e-8,-373.74205)">
</g>
</svg>