<?xml version="1.0" encoding="UTF-8" standalone="no"?>
<!-- Generator: Adobe Illustrator 19.0.0, SVG Export Plug-In . SVG Version: 6.00 Build 0)  -->

<svg
   xmlns:dc="http://purl.org/dc/elements/1.1/"
   xmlns:cc="http://creativecommons.org/ns#"
   xmlns:rdf="http://www.w3.org/1999/02/22-rdf-syntax-ns#"
   xmlns:svg="http://www.w3.org/2000/svg"
   xmlns="http://www.w3.org/2000/svg"
   xmlns:sodipodi="http://sodipodi.sourceforge.net/DTD/sodipodi-0.dtd"
   xmlns:inkscape="http://www.inkscape.org/namespaces/inkscape"
   version="1.1"
   id="Layer_1"
   x="0px"
   y="0px"
   viewBox="0 0 565.12441 492.0268"
   xml:space="preserve"
   sodipodi:docname="daffodil4.svg"
   width="565.12439"
   height="492.02679"
   inkscape:version="0.92.4 (5da689c313, 2019-01-14)"><metadata
   id="metadata49"><rdf:RDF><cc:Work
       rdf:about=""><dc:format>image/svg+xml</dc:format><dc:type
         rdf:resource="http://purl.org/dc/dcmitype/StillImage" /><dc:title></dc:title></cc:Work></rdf:RDF></metadata><defs
   id="defs47" /><sodipodi:namedview
   pagecolor="#ffffff"
   bordercolor="#666666"
   borderopacity="1"
   objecttolerance="10"
   gridtolerance="10"
   guidetolerance="10"
   inkscape:pageopacity="0"
   inkscape:pageshadow="2"
   inkscape:window-width="1920"
   inkscape:window-height="1001"
   id="namedview45"
   showgrid="false"
   fit-margin-top="0"
   fit-margin-left="0"
   fit-margin-right="0"
   fit-margin-bottom="0"
   inkscape:zoom="0.65186535"
   inkscape:cx="533.71595"
   inkscape:cy="394.26887"
   inkscape:window-x="-9"
   inkscape:window-y="-9"
   inkscape:window-maximized="1"
   inkscape:current-layer="Layer_1" />
<path
   style="fill:#ffe650;stroke-width:7.77818966"
   d="m 563.33729,240.38639 c -1.76711,-2.49227 -40.4628,-56.21677 -112.93031,-80.27877 -6.808,-2.26048 -10.87538,-9.3069 -9.42502,-16.3324 C 456.43684,68.898245 429.10105,8.4352552 427.8174,5.6537752 c -1.73182,-3.7396 -5.68551,-5.96587996 -9.72417,-5.61375996 -3.04747,0.27925 -69.0094,6.82676996 -126.10481,57.57664976 -5.35988,4.76384 -13.49128,4.76384 -18.85007,0 C 216.04297,6.8667852 150.07992,0.31926524 147.03354,0.04001524 c -4.08282,-0.37179 -7.99675,1.87415996 -9.72415,5.61375996 -1.28478,2.78031 -28.62055,63.2444698 -13.16456,138.1203548 1.45033,7.02659 -2.61593,14.07185 -9.42503,16.33242 -72.469716,24.06307 -111.1665139,77.78648 -112.9325331,80.27984 -2.38302253,3.37427 -2.38302253,7.88422 0,11.25622 1.7671231,2.49228 40.4628171,56.21679 112.9303231,80.27877 6.808,2.26057 10.87537,9.30582 9.42502,16.33241 -15.45487,74.87589 11.8809,135.34005 13.16458,138.12034 1.72738,3.7396 5.65788,5.91844 9.72414,5.61376 3.04749,-0.27923 69.00942,-6.82676 126.10482,-57.57665 5.35986,-4.76383 13.49129,-4.76383 18.85005,0 57.09542,50.74989 123.05844,57.29742 126.10485,57.57665 0.29471,0.0233 0.58942,0.0389 0.8852,0.0389 3.76824,0 7.23628,-2.18434 8.84002,-5.65232 1.28478,-2.7804 28.62057,-63.24455 13.16458,-138.12044 -1.45034,-7.02658 2.61593,-14.07183 9.42503,-16.33233 72.4664,-24.06206 111.16321,-77.78548 112.93033,-80.27884 2.38411,-3.37309 2.38411,-7.88313 7.8e-4,-11.25506 z"
   id="path2"
   inkscape:connector-curvature="0" />
<path
   style="fill:#ffd250;stroke-width:7.77818966"
   d="m 450.40809,331.92029 c 0.14239,-0.0466 0.2737,-0.10501 0.41505,-0.15254 l -148.8225,-85.7932 147.97257,-86.10774 c -6.5155,-2.42719 -10.40627,-9.23413 -8.99014,-16.09177 0.0949,-0.45891 0.14465,-0.9018 0.23623,-1.35877 L 292.30522,229.07272 V 57.351655 c -0.10483,0.0941 -0.21312,0.17189 -0.31789,0.26603 -5.35987,4.76382 -13.49129,4.76382 -18.85115,0 -0.10483,-0.0941 -0.21313,-0.17265 -0.31789,-0.26603 V 229.15222 L 124.07748,143.40653 c 0.0257,0.12605 0.0389,0.24502 0.0638,0.36869 1.45033,7.02659 -2.61592,14.07192 -9.42503,16.3324 -0.14241,0.0468 -0.27371,0.10501 -0.41613,0.15254 l 148.82159,85.79295 -147.97145,86.10777 c 6.51551,2.42718 10.40627,9.23301 8.99014,16.09174 -0.0949,0.45892 -0.14458,0.90289 -0.23622,1.36095 l 148.91408,-86.65636 v 171.72005 c 0.10483,-0.0941 0.21312,-0.17189 0.31789,-0.26602 5.35986,-4.76499 13.49129,-4.76499 18.85115,0 0.10483,0.0941 0.21313,0.17189 0.31789,0.26602 V 262.87665 l 148.74077,85.74684 c -0.0257,-0.12605 -0.0389,-0.2458 -0.0639,-0.37181 -1.45037,-7.02433 2.61591,-14.07074 9.42611,-16.33124 z"
   id="path4"
   inkscape:connector-curvature="0" />
<path
   style="fill:#fff073;stroke-width:7.77818966"
   d="M 457.94678,236.27049 H 299.4399 L 378.69444,98.998885 c 2.68767,-4.66223 1.09384,-10.61923 -3.56844,-13.31244 -4.68217,-2.70314 -10.62373,-1.09384 -13.31248,3.56848 L 282.56229,226.52427 203.30995,89.254925 c -2.70311,-4.66232 -8.6579,-6.27053 -13.31247,-3.56848 -4.66229,2.69321 -6.25612,8.65021 -3.56846,13.31244 L 265.68354,236.27049 H 107.17668 c -5.38084,0 -9.744005,4.36318 -9.744005,9.74405 0,5.3808 4.363165,9.74397 9.744005,9.74397 h 158.50686 l -79.25452,137.2716 c -2.68766,4.66232 -1.09383,10.61933 3.56846,13.31244 1.53754,0.88525 3.21195,1.30354 4.86208,1.30354 3.36867,0 6.64132,-1.74611 8.44929,-4.872 L 282.56118,265.50475 361.8124,402.773 c 1.80797,3.1248 5.08174,4.87201 8.4504,4.87201 1.65012,0 3.33006,-0.41924 4.86207,-1.30355 4.66231,-2.69319 6.25613,-8.65019 3.56848,-13.31245 L 299.4399,255.75742 h 158.50688 c 5.38084,0 9.744,-4.36317 9.744,-9.74404 0,-5.37971 -4.36316,-9.74289 -9.744,-9.74289 z"
   id="path6"
   inkscape:connector-curvature="0" />
<path
   style="fill:#ff783c;stroke-width:7.77818966"
   d="m 389.74201,246.01454 c 0,8.7241 -20.30369,14.66571 -22.45384,22.71101 -2.22517,8.32568 12.32129,23.60725 8.10272,30.8965 -4.27709,7.39294 -24.8214,2.40176 -30.82257,8.40185 -6.00003,6.00003 -1.00993,26.54432 -8.40294,30.82139 -7.28813,4.2164 -22.5686,-10.33005 -30.89207,-8.10487 -8.04754,2.15121 -13.98689,22.45384 -22.71102,22.45384 -8.72414,0 -14.66569,-20.30372 -22.711,-22.45384 -8.32571,-2.22518 -23.60728,12.32127 -30.89653,8.1027 -7.39299,-4.27708 -2.40179,-24.82144 -8.40183,-30.82256 -6.00005,-6.0001 -26.54438,-1.00993 -30.82145,-8.40294 -4.21638,-7.28816 10.33011,-22.56864 8.10493,-30.89207 -2.15125,-8.0453 -22.45384,-13.98582 -22.45384,-22.70992 0,-8.72417 20.3037,-14.66569 22.45384,-22.71099 2.22518,-8.3257 -12.32131,-23.60728 -8.10274,-30.89652 4.27708,-7.39302 24.82141,-2.40184 30.82256,-8.40184 6.00006,-6.0001 1.00995,-26.54439 8.40294,-30.82147 7.28817,-4.21641 22.56862,10.33013 30.89212,8.10495 8.04751,-2.15237 13.98686,-22.45494 22.711,-22.45494 8.72413,0 14.66569,20.30365 22.71102,22.45377 8.32567,2.22526 23.60725,-12.32128 30.89649,-8.10268 7.39299,4.27706 2.40178,24.82143 8.40182,30.82255 6.00007,6.00009 26.5444,1.00999 30.82147,8.40291 4.21637,7.28818 -10.33009,22.56866 -8.10492,30.8921 2.15015,8.04647 22.45384,13.9869 22.45384,22.71107 z"
   id="path8"
   inkscape:connector-curvature="0" />
<path
   style="fill:#ff963c;stroke-width:7.77818966"
   d="m 287.87249,194.87613 18.96482,-10.09065 c 7.37976,-3.92711 16.32135,1.23628 16.61053,9.59067 l 0.74391,21.47036 c 0.13037,3.75828 2.12031,7.20641 5.31022,9.19874 l 18.22087,11.37981 c 7.08948,4.42718 7.08948,14.75288 0,19.18007 l -18.22087,11.37973 c -3.18991,1.9923 -5.18107,5.44046 -5.31022,9.19879 l -0.74391,21.47038 c -0.29028,8.35439 -9.23077,13.5167 -16.61053,9.59058 l -18.96482,-10.09056 c -3.32012,-1.76605 -7.3014,-1.76605 -10.62149,0 l -18.96486,10.09056 c -7.37976,3.92721 -16.32133,-1.23619 -16.61052,-9.59058 l -0.7439,-21.47038 c -0.13019,-3.75833 -2.12033,-7.20649 -5.31018,-9.19879 l -18.22092,-11.37973 c -7.08945,-4.42719 -7.08945,-14.75289 0,-19.18007 l 18.22092,-11.37981 c 3.18985,-1.99233 5.18104,-5.44046 5.31018,-9.19874 l 0.7439,-21.47036 c 0.2903,-8.35439 9.23076,-13.5167 16.61052,-9.59067 l 18.96486,10.09065 c 3.32119,1.76713 7.30137,1.76713 10.62149,0 z"
   id="path10"
   inkscape:connector-curvature="0" />
<circle
   style="fill:#ffe650;stroke-width:7.77818966"
   cx="282.56339"
   cy="246.01445"
   r="19.486921"
   id="circle12" />
<g
   id="g14"
   transform="translate(-1.000002e-8,-19.972405)">
</g>
<g
   id="g16"
   transform="translate(-1.000002e-8,-19.972405)">
</g>
<g
   id="g18"
   transform="translate(-1.000002e-8,-19.972405)">
</g>
<g
   id="g20"
   transform="translate(-1.000002e-8,-19.972405)">
</g>
<g
   id="g22"
   transform="translate(-1.000002e-8,-19.972405)">
</g>
<g
   id="g24"
   transform="translate(-1.000002e-8,-19.972405)">
</g>
<g
   id="g26"
   transform="translate(-1.000002e-8,-19.972405)">
</g>
<g
   id="g28"
   transform="translate(-1.000002e-8,-19.972405)">
</g>
<g
   id="g30"
   transform="translate(-1.000002e-8,-19.972405)">
</g>
<g
   id="g32"
   transform="translate(-1.000002e-8,-19.972405)">
</g>
<g
   id="g34"
   transform="translate(-1.000002e-8,-19.972405)">
</g>
<g
   id="g36"
   transform="translate(-1.000002e-8,-19.972405)">
</g>
<g
   id="g38"
   transform="translate(-1.000002e-8,-19.972405)">
</g>
<g
   id="g40"
   transform="translate(-1.000002e-8,-19.972405)">
</g>
<g
   id="g42"
   transform="translate(-1.000002e-8,-19.972405)">
</g>
</svg>